<?xml version="1.0" standalone="no"?>
<!DOCTYPE svg PUBLIC "-//W3C//DTD SVG 1.1//EN" "http://www.w3.org/Graphics/SVG/1.1/DTD/svg11.dtd">
<svg version="1.1" xmlns="http://www.w3.org/2000/svg" viewBox="0 0 646.1520396109954 477.8540790477746" width="1292.3040792219908" height="955.7081580955492"><!-- svg-source:excalidraw --><metadata></metadata><defs><style class="style-fonts">
      </style></defs><g stroke-linecap="round" transform="translate(10 242.759912331745) rotate(0 112.54708335801433 112.54708335801433)"><path d="M225.09 112.55 C225.09 116.01, 224.93 119.48, 224.61 122.93 C224.29 126.38, 223.81 129.82, 223.18 133.23 C222.54 136.63, 221.75 140.02, 220.8 143.35 C219.85 146.68, 218.74 149.98, 217.49 153.2 C216.24 156.43, 214.84 159.62, 213.3 162.71 C211.75 165.81, 210.06 168.85, 208.24 171.8 C206.41 174.74, 204.45 177.61, 202.36 180.37 C200.28 183.13, 198.05 185.81, 195.72 188.37 C193.39 190.93, 190.93 193.39, 188.37 195.72 C185.81 198.05, 183.13 200.28, 180.37 202.36 C177.61 204.45, 174.74 206.41, 171.8 208.24 C168.85 210.06, 165.81 211.75, 162.71 213.3 C159.62 214.84, 156.43 216.24, 153.2 217.49 C149.98 218.74, 146.68 219.85, 143.35 220.8 C140.02 221.75, 136.63 222.54, 133.23 223.18 C129.82 223.81, 126.38 224.29, 122.93 224.61 C119.48 224.93, 116.01 225.09, 112.55 225.09 C109.09 225.09, 105.61 224.93, 102.16 224.61 C98.72 224.29, 95.27 223.81, 91.87 223.18 C88.46 222.54, 85.08 221.75, 81.75 220.8 C78.42 219.85, 75.12 218.74, 71.89 217.49 C68.66 216.24, 65.48 214.84, 62.38 213.3 C59.28 211.75, 56.24 210.06, 53.3 208.24 C50.36 206.41, 47.48 204.45, 44.72 202.36 C41.96 200.28, 39.28 198.05, 36.72 195.72 C34.17 193.39, 31.71 190.93, 29.37 188.37 C27.04 185.81, 24.82 183.13, 22.73 180.37 C20.65 177.61, 18.68 174.74, 16.86 171.8 C15.04 168.85, 13.34 165.81, 11.8 162.71 C10.26 159.62, 8.85 156.43, 7.6 153.2 C6.35 149.98, 5.24 146.68, 4.3 143.35 C3.35 140.02, 2.55 136.63, 1.92 133.23 C1.28 129.82, 0.8 126.38, 0.48 122.93 C0.16 119.48, 0 116.01, 0 112.55 C0 109.09, 0.16 105.61, 0.48 102.16 C0.8 98.72, 1.28 95.27, 1.92 91.87 C2.55 88.46, 3.35 85.08, 4.3 81.75 C5.24 78.42, 6.35 75.12, 7.6 71.89 C8.85 68.66, 10.26 65.48, 11.8 62.38 C13.34 59.28, 15.04 56.24, 16.86 53.3 C18.68 50.36, 20.65 47.48, 22.73 44.72 C24.82 41.96, 27.04 39.28, 29.37 36.72 C31.71 34.17, 34.17 31.71, 36.72 29.37 C39.28 27.04, 41.96 24.82, 44.72 22.73 C47.48 20.65, 50.36 18.68, 53.3 16.86 C56.24 15.04, 59.28 13.34, 62.38 11.8 C65.48 10.26, 68.66 8.85, 71.89 7.6 C75.12 6.35, 78.42 5.24, 81.75 4.3 C85.08 3.35, 88.46 2.55, 91.87 1.92 C95.27 1.28, 98.72 0.8, 102.16 0.48 C105.61 0.16, 109.09 0, 112.55 0 C116.01 0, 119.48 0.16, 122.93 0.48 C126.38 0.8, 129.82 1.28, 133.23 1.92 C136.63 2.55, 140.02 3.35, 143.35 4.3 C146.68 5.24, 149.98 6.35, 153.2 7.6 C156.43 8.85, 159.62 10.26, 162.71 11.8 C165.81 13.34, 168.85 15.04, 171.8 16.86 C174.74 18.68, 177.61 20.65, 180.37 22.73 C183.13 24.82, 185.81 27.04, 188.37 29.37 C190.93 31.71, 193.39 34.17, 195.72 36.72 C198.05 39.28, 200.28 41.96, 202.36 44.72 C204.45 47.48, 206.41 50.36, 208.24 53.3 C210.06 56.24, 211.75 59.28, 213.3 62.38 C214.84 65.48, 216.24 68.66, 217.49 71.89 C218.74 75.12, 219.85 78.42, 220.8 81.75 C221.75 85.08, 222.54 88.46, 223.18 91.87 C223.81 95.27, 224.29 98.72, 224.61 102.16 C224.93 105.61, 225.01 110.82, 225.09 112.55 C225.17 114.28, 225.17 110.82, 225.09 112.55" stroke="none" stroke-width="0" fill="#1971c2"></path><path d="M225.09 112.55 C225.09 116.01, 224.93 119.48, 224.61 122.93 C224.29 126.38, 223.81 129.82, 223.18 133.23 C222.54 136.63, 221.75 140.02, 220.8 143.35 C219.85 146.68, 218.74 149.98, 217.49 153.2 C216.24 156.43, 214.84 159.62, 213.3 162.71 C211.75 165.81, 210.06 168.85, 208.24 171.8 C206.41 174.74, 204.45 177.61, 202.36 180.37 C200.28 183.13, 198.05 185.81, 195.72 188.37 C193.39 190.93, 190.93 193.39, 188.37 195.72 C185.81 198.05, 183.13 200.28, 180.37 202.36 C177.61 204.45, 174.74 206.41, 171.8 208.24 C168.85 210.06, 165.81 211.75, 162.71 213.3 C159.62 214.84, 156.43 216.24, 153.2 217.49 C149.98 218.74, 146.68 219.85, 143.35 220.8 C140.02 221.75, 136.63 222.54, 133.23 223.18 C129.82 223.81, 126.38 224.29, 122.93 224.61 C119.48 224.93, 116.01 225.09, 112.55 225.09 C109.09 225.09, 105.61 224.93, 102.16 224.61 C98.72 224.29, 95.27 223.81, 91.87 223.18 C88.46 222.54, 85.08 221.75, 81.75 220.8 C78.42 219.85, 75.12 218.74, 71.89 217.49 C68.66 216.24, 65.48 214.84, 62.38 213.3 C59.28 211.75, 56.24 210.06, 53.3 208.24 C50.36 206.41, 47.48 204.45, 44.72 202.36 C41.96 200.28, 39.28 198.05, 36.72 195.72 C34.17 193.39, 31.71 190.93, 29.37 188.37 C27.04 185.81, 24.82 183.13, 22.73 180.37 C20.65 177.61, 18.68 174.74, 16.86 171.8 C15.04 168.85, 13.34 165.81, 11.8 162.71 C10.26 159.62, 8.85 156.43, 7.6 153.2 C6.35 149.98, 5.24 146.68, 4.3 143.35 C3.35 140.02, 2.55 136.63, 1.92 133.23 C1.28 129.82, 0.8 126.38, 0.48 122.93 C0.16 119.48, 0 116.01, 0 112.55 C0 109.09, 0.16 105.61, 0.48 102.16 C0.8 98.72, 1.28 95.27, 1.92 91.87 C2.55 88.46, 3.35 85.08, 4.3 81.75 C5.24 78.42, 6.35 75.12, 7.6 71.89 C8.85 68.66, 10.26 65.48, 11.8 62.38 C13.34 59.28, 15.04 56.24, 16.86 53.3 C18.68 50.36, 20.65 47.48, 22.73 44.72 C24.82 41.96, 27.04 39.28, 29.37 36.72 C31.71 34.17, 34.17 31.71, 36.72 29.37 C39.28 27.04, 41.96 24.82, 44.72 22.73 C47.48 20.65, 50.36 18.68, 53.3 16.86 C56.24 15.04, 59.28 13.34, 62.38 11.8 C65.48 10.26, 68.66 8.85, 71.89 7.6 C75.12 6.35, 78.42 5.24, 81.75 4.3 C85.08 3.35, 88.46 2.55, 91.87 1.92 C95.27 1.28, 98.72 0.8, 102.16 0.48 C105.61 0.16, 109.09 0, 112.55 0 C116.01 0, 119.48 0.16, 122.93 0.48 C126.38 0.8, 129.82 1.28, 133.23 1.92 C136.63 2.55, 140.02 3.35, 143.35 4.3 C146.68 5.24, 149.98 6.35, 153.2 7.6 C156.43 8.85, 159.62 10.26, 162.71 11.8 C165.81 13.34, 168.85 15.04, 171.8 16.86 C174.74 18.68, 177.61 20.65, 180.37 22.73 C183.13 24.82, 185.81 27.04, 188.37 29.37 C190.93 31.71, 193.39 34.17, 195.72 36.72 C198.05 39.28, 200.28 41.96, 202.36 44.72 C204.45 47.48, 206.41 50.36, 208.24 53.3 C210.06 56.24, 211.75 59.28, 213.3 62.38 C214.84 65.48, 216.24 68.66, 217.49 71.89 C218.74 75.12, 219.85 78.42, 220.8 81.75 C221.75 85.08, 222.54 88.46, 223.18 91.87 C223.81 95.27, 224.29 98.72, 224.61 102.16 C224.93 105.61, 225.01 110.82, 225.09 112.55 C225.17 114.28, 225.17 110.82, 225.09 112.55" stroke="transparent" stroke-width="2" fill="none"></path></g><g stroke-linecap="round" transform="translate(304.43432024000595 10) rotate(0 76.6574561571615 76.6574561571615)"><path d="M153.31 76.66 C153.31 79.52, 153.15 82.4, 152.83 85.24 C152.51 88.08, 152.03 90.93, 151.39 93.72 C150.76 96.5, 149.96 99.28, 149.01 101.98 C148.07 104.68, 146.96 107.34, 145.72 109.92 C144.48 112.5, 143.09 115.02, 141.57 117.44 C140.04 119.86, 138.37 122.22, 136.59 124.45 C134.81 126.69, 132.89 128.84, 130.86 130.86 C128.84 132.89, 126.69 134.81, 124.45 136.59 C122.22 138.37, 119.86 140.04, 117.44 141.57 C115.02 143.09, 112.5 144.48, 109.92 145.72 C107.34 146.96, 104.68 148.07, 101.98 149.01 C99.28 149.96, 96.5 150.76, 93.72 151.39 C90.93 152.03, 88.08 152.51, 85.24 152.83 C82.4 153.15, 79.52 153.31, 76.66 153.31 C73.8 153.31, 70.92 153.15, 68.07 152.83 C65.23 152.51, 62.39 152.03, 59.6 151.39 C56.81 150.76, 54.04 149.96, 51.34 149.01 C48.64 148.07, 45.97 146.96, 43.4 145.72 C40.82 144.48, 38.3 143.09, 35.87 141.57 C33.45 140.04, 31.1 138.37, 28.86 136.59 C26.63 134.81, 24.48 132.89, 22.45 130.86 C20.43 128.84, 18.51 126.69, 16.72 124.45 C14.94 122.22, 13.27 119.86, 11.75 117.44 C10.23 115.02, 8.83 112.5, 7.59 109.92 C6.35 107.34, 5.25 104.68, 4.3 101.98 C3.36 99.28, 2.56 96.5, 1.92 93.72 C1.29 90.93, 0.8 88.08, 0.48 85.24 C0.16 82.4, 0 79.52, 0 76.66 C0 73.8, 0.16 70.92, 0.48 68.07 C0.8 65.23, 1.29 62.39, 1.92 59.6 C2.56 56.81, 3.36 54.04, 4.3 51.34 C5.25 48.64, 6.35 45.97, 7.59 43.4 C8.83 40.82, 10.23 38.3, 11.75 35.87 C13.27 33.45, 14.94 31.1, 16.72 28.86 C18.51 26.63, 20.43 24.48, 22.45 22.45 C24.48 20.43, 26.63 18.51, 28.86 16.72 C31.1 14.94, 33.45 13.27, 35.87 11.75 C38.3 10.23, 40.82 8.83, 43.4 7.59 C45.97 6.35, 48.64 5.25, 51.34 4.3 C54.04 3.36, 56.81 2.56, 59.6 1.92 C62.39 1.29, 65.23 0.8, 68.07 0.48 C70.92 0.16, 73.8 0, 76.66 0 C79.52 0, 82.4 0.16, 85.24 0.48 C88.08 0.8, 90.93 1.29, 93.72 1.92 C96.5 2.56, 99.28 3.36, 101.98 4.3 C104.68 5.25, 107.34 6.35, 109.92 7.59 C112.5 8.83, 115.02 10.23, 117.44 11.75 C119.86 13.27, 122.22 14.94, 124.45 16.72 C126.69 18.51, 128.84 20.43, 130.86 22.45 C132.89 24.48, 134.81 26.63, 136.59 28.86 C138.37 31.1, 140.04 33.45, 141.57 35.87 C143.09 38.3, 144.48 40.82, 145.72 43.4 C146.96 45.97, 148.07 48.64, 149.01 51.34 C149.96 54.04, 150.76 56.81, 151.39 59.6 C152.03 62.39, 152.51 65.23, 152.83 68.07 C153.15 70.92, 153.23 75.23, 153.31 76.66 C153.4 78.09, 153.4 75.23, 153.31 76.66" stroke="none" stroke-width="0" fill="#1971c2"></path><path d="M153.31 76.66 C153.31 79.52, 153.15 82.4, 152.83 85.24 C152.51 88.08, 152.03 90.93, 151.39 93.72 C150.76 96.5, 149.96 99.28, 149.01 101.98 C148.07 104.68, 146.96 107.34, 145.72 109.92 C144.48 112.5, 143.09 115.02, 141.57 117.44 C140.04 119.86, 138.37 122.22, 136.59 124.45 C134.81 126.69, 132.89 128.84, 130.86 130.86 C128.84 132.89, 126.69 134.81, 124.45 136.59 C122.22 138.37, 119.86 140.04, 117.44 141.57 C115.02 143.09, 112.5 144.48, 109.92 145.72 C107.34 146.96, 104.68 148.07, 101.98 149.01 C99.28 149.96, 96.5 150.76, 93.72 151.39 C90.93 152.03, 88.08 152.51, 85.24 152.83 C82.4 153.15, 79.52 153.31, 76.66 153.31 C73.8 153.31, 70.92 153.15, 68.07 152.83 C65.23 152.51, 62.39 152.03, 59.6 151.39 C56.81 150.76, 54.04 149.96, 51.34 149.01 C48.64 148.07, 45.97 146.96, 43.4 145.72 C40.82 144.48, 38.3 143.09, 35.87 141.57 C33.45 140.04, 31.1 138.37, 28.86 136.59 C26.63 134.81, 24.48 132.89, 22.45 130.86 C20.43 128.84, 18.51 126.69, 16.72 124.45 C14.94 122.22, 13.27 119.86, 11.75 117.44 C10.23 115.02, 8.83 112.5, 7.59 109.92 C6.35 107.34, 5.25 104.68, 4.3 101.98 C3.36 99.28, 2.56 96.5, 1.92 93.72 C1.29 90.93, 0.8 88.08, 0.48 85.24 C0.16 82.4, 0 79.52, 0 76.66 C0 73.8, 0.16 70.92, 0.48 68.07 C0.8 65.23, 1.29 62.39, 1.92 59.6 C2.56 56.81, 3.36 54.04, 4.3 51.34 C5.25 48.64, 6.35 45.97, 7.59 43.4 C8.83 40.82, 10.23 38.3, 11.75 35.87 C13.27 33.45, 14.94 31.1, 16.72 28.86 C18.51 26.63, 20.43 24.48, 22.45 22.45 C24.48 20.43, 26.63 18.51, 28.86 16.72 C31.1 14.94, 33.45 13.27, 35.87 11.75 C38.3 10.23, 40.82 8.83, 43.4 7.59 C45.97 6.35, 48.64 5.25, 51.34 4.3 C54.04 3.36, 56.81 2.56, 59.6 1.92 C62.39 1.29, 65.23 0.8, 68.07 0.48 C70.92 0.16, 73.8 0, 76.66 0 C79.52 0, 82.4 0.16, 85.24 0.48 C88.08 0.8, 90.93 1.29, 93.72 1.92 C96.5 2.56, 99.28 3.36, 101.98 4.3 C104.68 5.25, 107.34 6.35, 109.92 7.59 C112.5 8.83, 115.02 10.23, 117.44 11.75 C119.86 13.27, 122.22 14.94, 124.45 16.72 C126.69 18.51, 128.84 20.43, 130.86 22.45 C132.89 24.48, 134.81 26.63, 136.59 28.86 C138.37 31.1, 140.04 33.45, 141.57 35.87 C143.09 38.3, 144.48 40.82, 145.72 43.4 C146.96 45.97, 148.07 48.64, 149.01 51.34 C149.96 54.04, 150.76 56.81, 151.39 59.6 C152.03 62.39, 152.51 65.23, 152.83 68.07 C153.15 70.92, 153.23 75.23, 153.31 76.66 C153.4 78.09, 153.4 75.23, 153.31 76.66" stroke="transparent" stroke-width="2" fill="none"></path></g><g stroke-linecap="round" transform="translate(523.2565132704494 207.21872811342655) rotate(0 56.44776317027345 56.44776317027345)"><path d="M112.9 56.45 C112.9 58.9, 112.73 61.38, 112.41 63.82 C112.09 66.25, 111.61 68.69, 110.97 71.06 C110.34 73.43, 109.54 75.78, 108.6 78.05 C107.66 80.32, 106.56 82.54, 105.33 84.67 C104.1 86.8, 102.73 88.86, 101.23 90.81 C99.74 92.76, 98.1 94.63, 96.36 96.36 C94.63 98.1, 92.76 99.74, 90.81 101.23 C88.86 102.73, 86.8 104.1, 84.67 105.33 C82.54 106.56, 80.32 107.66, 78.05 108.6 C75.78 109.54, 73.43 110.34, 71.06 110.97 C68.69 111.61, 66.25 112.09, 63.82 112.41 C61.38 112.73, 58.9 112.9, 56.45 112.9 C53.99 112.9, 51.51 112.73, 49.08 112.41 C46.64 112.09, 44.21 111.61, 41.84 110.97 C39.47 110.34, 37.12 109.54, 34.85 108.6 C32.58 107.66, 30.35 106.56, 28.22 105.33 C26.1 104.1, 24.03 102.73, 22.08 101.23 C20.14 99.74, 18.27 98.1, 16.53 96.36 C14.8 94.63, 13.16 92.76, 11.66 90.81 C10.17 88.86, 8.79 86.8, 7.56 84.67 C6.33 82.54, 5.24 80.32, 4.3 78.05 C3.36 75.78, 2.56 73.43, 1.92 71.06 C1.29 68.69, 0.8 66.25, 0.48 63.82 C0.16 61.38, 0 58.9, 0 56.45 C0 53.99, 0.16 51.51, 0.48 49.08 C0.8 46.64, 1.29 44.21, 1.92 41.84 C2.56 39.47, 3.36 37.12, 4.3 34.85 C5.24 32.58, 6.33 30.35, 7.56 28.22 C8.79 26.1, 10.17 24.03, 11.66 22.08 C13.16 20.14, 14.8 18.27, 16.53 16.53 C18.27 14.8, 20.14 13.16, 22.08 11.66 C24.03 10.17, 26.1 8.79, 28.22 7.56 C30.35 6.33, 32.58 5.24, 34.85 4.3 C37.12 3.36, 39.47 2.56, 41.84 1.92 C44.21 1.29, 46.64 0.8, 49.08 0.48 C51.51 0.16, 53.99 0, 56.45 0 C58.9 0, 61.38 0.16, 63.82 0.48 C66.25 0.8, 68.69 1.29, 71.06 1.92 C73.43 2.56, 75.78 3.36, 78.05 4.3 C80.32 5.24, 82.54 6.33, 84.67 7.56 C86.8 8.79, 88.86 10.17, 90.81 11.66 C92.76 13.16, 94.63 14.8, 96.36 16.53 C98.1 18.27, 99.74 20.14, 101.23 22.08 C102.73 24.03, 104.1 26.1, 105.33 28.22 C106.56 30.35, 107.66 32.58, 108.6 34.85 C109.54 37.12, 110.34 39.47, 110.97 41.84 C111.61 44.21, 112.09 46.64, 112.41 49.08 C112.73 51.51, 112.82 55.22, 112.9 56.45 C112.98 57.68, 112.98 55.22, 112.9 56.45" stroke="none" stroke-width="0" fill="#1971c2"></path><path d="M112.9 56.45 C112.9 58.9, 112.73 61.38, 112.41 63.82 C112.09 66.25, 111.61 68.69, 110.97 71.06 C110.34 73.43, 109.54 75.78, 108.6 78.05 C107.66 80.32, 106.56 82.54, 105.33 84.67 C104.1 86.8, 102.73 88.86, 101.23 90.81 C99.74 92.76, 98.1 94.63, 96.36 96.36 C94.63 98.1, 92.76 99.74, 90.81 101.23 C88.86 102.73, 86.8 104.1, 84.67 105.33 C82.54 106.56, 80.32 107.66, 78.05 108.6 C75.78 109.54, 73.43 110.34, 71.06 110.97 C68.69 111.61, 66.25 112.09, 63.82 112.41 C61.38 112.73, 58.9 112.9, 56.45 112.9 C53.99 112.9, 51.51 112.73, 49.08 112.41 C46.64 112.09, 44.21 111.61, 41.84 110.97 C39.47 110.34, 37.12 109.54, 34.85 108.6 C32.58 107.66, 30.35 106.56, 28.22 105.33 C26.1 104.1, 24.03 102.73, 22.08 101.23 C20.14 99.74, 18.27 98.1, 16.53 96.36 C14.8 94.63, 13.16 92.76, 11.66 90.81 C10.17 88.86, 8.79 86.8, 7.56 84.67 C6.33 82.54, 5.24 80.32, 4.3 78.05 C3.36 75.78, 2.56 73.43, 1.92 71.06 C1.29 68.69, 0.8 66.25, 0.48 63.82 C0.16 61.38, 0 58.9, 0 56.45 C0 53.99, 0.16 51.51, 0.48 49.08 C0.8 46.64, 1.29 44.21, 1.92 41.84 C2.56 39.47, 3.36 37.12, 4.3 34.85 C5.24 32.58, 6.33 30.35, 7.56 28.22 C8.79 26.1, 10.17 24.03, 11.66 22.08 C13.16 20.14, 14.8 18.27, 16.53 16.53 C18.27 14.8, 20.14 13.16, 22.08 11.66 C24.03 10.17, 26.1 8.79, 28.22 7.56 C30.35 6.33, 32.58 5.24, 34.85 4.3 C37.12 3.36, 39.47 2.56, 41.84 1.92 C44.21 1.29, 46.64 0.8, 49.08 0.48 C51.51 0.16, 53.99 0, 56.45 0 C58.9 0, 61.38 0.16, 63.82 0.48 C66.25 0.8, 68.69 1.29, 71.06 1.92 C73.43 2.56, 75.78 3.36, 78.05 4.3 C80.32 5.24, 82.54 6.33, 84.67 7.56 C86.8 8.79, 88.86 10.17, 90.81 11.66 C92.76 13.16, 94.63 14.8, 96.36 16.53 C98.1 18.27, 99.74 20.14, 101.23 22.08 C102.73 24.03, 104.1 26.1, 105.33 28.22 C106.56 30.35, 107.66 32.58, 108.6 34.85 C109.54 37.12, 110.34 39.47, 110.97 41.84 C111.61 44.21, 112.09 46.64, 112.41 49.08 C112.73 51.51, 112.82 55.22, 112.9 56.45 C112.98 57.68, 112.98 55.22, 112.9 56.45" stroke="transparent" stroke-width="2" fill="none"></path></g><g stroke-linecap="round"><g transform="translate(206.2923977559476 256.3946217819266) rotate(0 52.11052304293844 -53.76865830895258)"><path d="M0 0 C17.37 -17.92, 86.85 -89.61, 104.22 -107.54 M0 0 C17.37 -17.92, 86.85 -89.61, 104.22 -107.54" stroke="#1971c2" stroke-width="2" fill="none"></path></g><g transform="translate(206.2923977559476 256.3946217819266) rotate(0 52.11052304293844 -53.76865830895258)"><path d="M104.22 -107.54 L99.31 -93.36 L90.21 -102.19 L104.22 -107.54" stroke="none" stroke-width="0" fill="#1971c2" fill-rule="evenodd"></path><path d="M104.22 -107.54 C102.53 -102.67, 100.85 -97.8, 99.31 -93.36 M104.22 -107.54 C102.3 -101.99, 100.38 -96.44, 99.31 -93.36 M99.31 -93.36 C97.14 -95.47, 94.96 -97.58, 90.21 -102.19 M99.31 -93.36 C96.37 -96.21, 93.43 -99.06, 90.21 -102.19 M90.21 -102.19 C93.24 -103.34, 96.26 -104.5, 104.22 -107.54 M90.21 -102.19 C95.35 -104.15, 100.49 -106.11, 104.22 -107.54 M104.22 -107.54 C104.22 -107.54, 104.22 -107.54, 104.22 -107.54 M104.22 -107.54 C104.22 -107.54, 104.22 -107.54, 104.22 -107.54" stroke="#1971c2" stroke-width="2" fill="none"></path></g></g><mask></mask><g stroke-linecap="round"><g transform="translate(457.20340630393093 144.06473974925393) rotate(0 37.68330652777422 35.10640910213897)"><path d="M0 0 C12.56 11.7, 62.81 58.51, 75.37 70.21 M0 0 C12.56 11.7, 62.81 58.51, 75.37 70.21" stroke="#1971c2" stroke-width="2" fill="none"></path></g><g transform="translate(457.20340630393093 144.06473974925393) rotate(0 37.68330652777422 35.10640910213897)"><path d="M75.37 70.21 L61.1 65.58 L69.74 56.31 L75.37 70.21" stroke="none" stroke-width="0" fill="#1971c2" fill-rule="evenodd"></path><path d="M75.37 70.21 C70.7 68.7, 66.03 67.18, 61.1 65.58 M75.37 70.21 C72.43 69.26, 69.5 68.31, 61.1 65.58 M61.1 65.58 C63.83 62.65, 66.57 59.71, 69.74 56.31 M61.1 65.58 C64.1 62.36, 67.11 59.14, 69.74 56.31 M69.74 56.31 C70.99 59.41, 72.25 62.5, 75.37 70.21 M69.74 56.31 C71.19 59.88, 72.63 63.45, 75.37 70.21 M75.37 70.21 C75.37 70.21, 75.37 70.21, 75.37 70.21 M75.37 70.21 C75.37 70.21, 75.37 70.21, 75.37 70.21" stroke="#1971c2" stroke-width="2" fill="none"></path></g></g><mask></mask></svg>